<?xml version="1.0" encoding="iso-8859-1"?>
<!-- Generator: Adobe Illustrator 19.0.0, SVG Export Plug-In . SVG Version: 6.00 Build 0)  -->
<svg xmlns="http://www.w3.org/2000/svg" xmlns:xlink="http://www.w3.org/1999/xlink" version="1.1" id="Capa_1" x="0px" y="0px" viewBox="0 0 512 512" style="enable-background:new 0 0 512 512;" xml:space="preserve" width="512" height="512">
<g>
	<rect x="229.81" y="376.084" width="52.379" height="90.072"/>
	<rect x="394.569" y="376.084" width="52.379" height="90.072"/>
	<rect x="312.19" y="376.084" width="52.379" height="90.072"/>
	<rect x="147.431" y="376.084" width="52.379" height="90.072"/>
	<rect x="100.811" y="185.932" width="310.378" height="40.057"/>
	<path d="M416.205,155.908c33.104,0,60.036-26.932,60.036-60.036h-30c0,16.562-13.474,30.036-30.036,30.036H402.4l-31.786-80.064   H141.387L109.6,125.908H95.795c-16.562,0-30.036-13.475-30.036-30.036h-30c0,33.104,26.932,60.036,60.036,60.036H416.205z"/>
	<rect x="65.052" y="376.084" width="52.379" height="90.072"/>
	<path d="M451.964,346.06c33.104,0,60.036-26.932,60.036-60.035h-30c0,16.562-13.474,30.035-30.036,30.035h-9.832l-23.848-60.071   H93.717L69.869,316.06h-9.832C43.474,316.06,30,302.586,30,286.024H0c0,33.104,26.932,60.035,60.036,60.035H451.964z"/>
</g>















</svg>
