<?xml version="1.0"?>
<svg xmlns="http://www.w3.org/2000/svg" xmlns:xlink="http://www.w3.org/1999/xlink" version="1.1" id="Capa_1" x="0px" y="0px" viewBox="0 0 512 512" style="enable-background:new 0 0 512 512;" xml:space="preserve" width="512px" height="512px"><g><path d="M482,286.024c0,16.562-13.474,30.035-30.036,30.035h-9.832l-30.943-77.94v-72.203h5.016  c33.104,0,60.036-26.932,60.036-60.036h-30c0,16.562-13.474,30.036-30.036,30.036h-9.832l-35.76-90.072H141.387l-35.76,90.072  h-9.832c-16.562,0-30.036-13.475-30.036-30.036h-30c0,33.104,26.932,60.036,60.036,60.036h5.016v72.203l-30.943,77.94h-9.832  C43.474,316.06,30,302.586,30,286.024H0c0,33.104,26.932,60.035,60.036,60.035h5.016v120.097h381.896V346.06h5.016  c33.104,0,60.036-26.932,60.036-60.035H482z M161.754,75.844h188.492l23.849,60.072h-236.19L161.754,75.844z M381.189,165.916  v60.072H130.811v-60.072H381.189z M125.995,255.988h260.011l23.848,60.071H102.146L125.995,255.988z M205.811,346.06v90.097h-40.379  V346.06H205.811z M235.811,346.06h40.379v90.097h-40.379V346.06z M306.189,346.06h40.379v90.097h-40.379V346.06z M95.052,346.06  h40.379v90.097H95.052V346.06z M416.948,436.156h-40.379V346.06h40.379V436.156z" data-original="#000000" class="active-path" data-old_color="#000000" fill="#FFFFFF"/></g> </svg>
